<!DOCTYPE svg PUBLIC "-//W3C//DTD SVG 20010904//EN" "http://www.w3.org/TR/2001/REC-SVG-20010904/DTD/svg10.dtd">
<svg version="1.0" xmlns="http://www.w3.org/2000/svg" width="96px" height="96px" viewBox="0 0 960 960" preserveAspectRatio="xMidYMid meet">
<g id="layer101" fill="#465b65" stroke="none">
 <path d="M80 828 c0 -6 12 -74 27 -150 l27 -138 83 0 83 0 0 -28 c0 -19 -15 -45 -48 -83 -27 -29 -54 -64 -60 -76 -7 -12 -12 -67 -12 -127 l0 -106 144 0 144 0 76 87 c45 53 76 97 76 111 0 15 6 22 20 22 19 0 20 7 20 100 l0 100 83 0 83 0 27 138 c15 76 27 144 27 150 0 9 -97 12 -400 12 -303 0 -400 -3 -400 -12z"/>
 </g>
<g id="layer102" fill="#d68022" stroke="none">
 <path d="M80 828 c0 -6 12 -74 27 -150 l27 -138 83 0 83 0 0 -28 c0 -19 -15 -45 -48 -83 -27 -29 -54 -64 -60 -76 -7 -12 -12 -67 -12 -127 l0 -106 144 0 144 0 76 87 c45 53 76 97 76 111 0 15 6 22 20 22 19 0 20 7 20 100 l0 100 83 0 83 0 27 138 c15 76 27 144 27 150 0 9 -97 12 -400 12 -303 0 -400 -3 -400 -12z m220 -148 c0 -40 0 -40 -38 -40 -40 0 -62 14 -62 40 0 26 22 40 62 40 38 0 38 0 38 -40z m454 18 c18 -29 -4 -53 -53 -56 l-41 -3 0 41 0 41 41 -3 c27 -2 46 -9 53 -20z"/>
 </g>
<g id="layer103" fill="#1e88e5" stroke="none">
 <path d="M80 828 c0 -6 12 -74 27 -150 l27 -138 83 0 83 0 0 -28 c0 -19 -15 -45 -48 -83 -27 -29 -54 -64 -60 -76 -7 -12 -12 -67 -12 -127 l0 -106 144 0 144 0 76 87 c45 53 76 97 76 111 0 15 6 22 20 22 19 0 20 7 20 100 l0 100 83 0 83 0 27 138 c15 76 27 144 27 150 0 9 -97 12 -400 12 -303 0 -400 -3 -400 -12z m220 -148 c0 -40 0 -40 -38 -40 -40 0 -62 14 -62 40 0 26 22 40 62 40 38 0 38 0 38 -40z m454 18 c18 -29 -4 -53 -53 -56 l-41 -3 0 41 0 41 41 -3 c27 -2 46 -9 53 -20z m-324 -388 c-44 -37 -50 -37 -50 0 0 29 2 30 43 30 l42 -1 -35 -29z"/>
 </g>
<g id="layer104" fill="#ffa726" stroke="none">
 <path d="M80 828 c0 -6 12 -74 27 -150 l27 -138 83 0 83 0 0 -28 c0 -19 -15 -45 -48 -83 -27 -29 -54 -64 -60 -76 -7 -12 -12 -67 -12 -127 l0 -106 144 0 144 0 76 87 c45 53 76 97 76 111 0 15 6 22 20 22 19 0 20 7 20 100 l0 100 83 0 83 0 27 138 c15 76 27 144 27 150 0 9 -97 12 -400 12 -303 0 -400 -3 -400 -12z m674 -130 c18 -29 -4 -53 -53 -56 -36 -3 -41 -1 -41 17 0 20 -5 21 -180 21 -173 0 -180 -1 -180 -20 0 -16 -7 -20 -38 -20 -40 0 -62 14 -62 40 0 38 16 40 284 38 234 -3 260 -5 270 -20z m-324 -388 c-44 -37 -50 -37 -50 0 0 29 2 30 43 30 l42 -1 -35 -29z"/>
 </g>
<g id="layer105" fill="#c0ad7b" stroke="none">
 <path d="M80 828 c0 -6 12 -74 27 -150 l27 -138 83 0 83 0 0 -32 0 -32 43 42 c44 43 81 54 105 30 22 -22 13 -62 -28 -123 -22 -33 -40 -66 -40 -72 0 -10 35 -13 140 -13 l140 0 0 100 0 100 83 0 83 0 27 138 c15 76 27 144 27 150 0 9 -97 12 -400 12 -303 0 -400 -3 -400 -12z m674 -130 c18 -29 -4 -53 -53 -56 -36 -3 -41 -1 -41 17 0 20 -5 21 -180 21 -173 0 -180 -1 -180 -20 0 -16 -7 -20 -38 -20 -40 0 -62 14 -62 40 0 38 16 40 284 38 234 -3 260 -5 270 -20z"/>
 <path d="M380 527 c0 -17 31 -47 49 -47 8 0 11 11 9 28 -2 21 -9 28 -30 30 -19 2 -28 -1 -28 -11z"/>
 </g>
<g id="layer106" fill="#a6af9d" stroke="none">
 <path d="M80 828 c0 -6 12 -74 27 -150 l27 -138 83 0 83 0 0 -32 0 -33 43 48 c50 54 76 59 106 20 25 -31 22 -44 -30 -122 -21 -32 -39 -64 -39 -70 0 -8 43 -11 140 -11 l140 0 0 100 0 100 83 0 83 0 27 138 c15 76 27 144 27 150 0 9 -97 12 -400 12 -303 0 -400 -3 -400 -12z m674 -130 c18 -29 -4 -53 -53 -56 -36 -3 -41 -1 -41 17 0 20 -5 21 -180 21 -173 0 -180 -1 -180 -20 0 -16 -7 -20 -38 -20 -40 0 -62 14 -62 40 0 38 16 40 284 38 234 -3 260 -5 270 -20z"/>
 <path d="M380 527 c0 -17 31 -47 49 -47 8 0 11 11 9 28 -2 21 -9 28 -30 30 -19 2 -28 -1 -28 -11z"/>
 </g>
<g id="layer107" fill="#64b4f5" stroke="none">
 <path d="M80 828 c0 -6 12 -74 27 -150 l27 -138 83 0 83 0 0 -31 0 -32 43 47 c48 51 75 58 107 26 29 -29 25 -49 -25 -126 -24 -38 -45 -72 -45 -76 0 -5 63 -8 140 -8 l140 0 0 100 0 100 83 0 83 0 27 138 c15 76 27 144 27 150 0 9 -97 12 -400 12 -303 0 -400 -3 -400 -12z m674 -130 c18 -29 -4 -53 -53 -56 -36 -3 -41 -1 -41 17 0 20 -5 21 -180 21 -173 0 -180 -1 -180 -20 0 -16 -7 -20 -38 -20 -40 0 -62 14 -62 40 0 38 16 40 284 38 234 -3 260 -5 270 -20z"/>
 <path d="M380 527 c0 -17 31 -47 49 -47 8 0 11 11 9 28 -2 21 -9 28 -30 30 -19 2 -28 -1 -28 -11z"/>
 </g>
<g id="layer108" fill="#ffc8bb" stroke="none">
 <path d="M80 828 c0 -6 12 -74 27 -150 l27 -138 83 0 83 0 0 49 0 50 -41 3 c-49 3 -71 27 -53 56 10 15 35 17 274 17 239 0 264 -2 274 -17 18 -29 -4 -53 -53 -56 l-41 -3 0 -50 0 -49 83 0 83 0 27 138 c15 76 27 144 27 150 0 9 -97 12 -400 12 -303 0 -400 -3 -400 -12z"/>
 <path d="M380 527 c0 -17 31 -47 49 -47 8 0 11 11 9 28 -2 21 -9 28 -30 30 -19 2 -28 -1 -28 -11z"/>
 </g>
<g id="layer109" fill="#cfd7db" stroke="none">
 <path d="M80 828 c0 -6 12 -74 27 -150 l27 -138 83 0 83 0 0 49 0 50 -41 3 c-49 3 -71 27 -53 56 10 15 35 17 274 17 239 0 264 -2 274 -17 18 -29 -4 -53 -53 -56 l-41 -3 0 -50 0 -49 83 0 83 0 27 138 c15 76 27 144 27 150 0 9 -97 12 -400 12 -303 0 -400 -3 -400 -12z"/>
 </g>

</svg>