<!DOCTYPE svg PUBLIC "-//W3C//DTD SVG 20010904//EN" "http://www.w3.org/TR/2001/REC-SVG-20010904/DTD/svg10.dtd">
<svg version="1.0" xmlns="http://www.w3.org/2000/svg" width="96px" height="96px" viewBox="0 0 3370 2730" preserveAspectRatio="xMidYMid meet">
<g id="layer101" fill="#ffffff" stroke="none">
 <path d="M1450 2674 l0 -35 -710 2 c-391 1 -713 -1 -716 -4 -9 -9 84 -181 111 -207 17 -16 38 -24 61 -24 34 0 37 -3 69 -65 41 -83 72 -111 125 -118 40 -6 42 -8 80 -83 l39 -77 50 -7 c27 -4 103 -22 168 -41 285 -84 523 -111 648 -72 105 32 104 32 61 -7 -59 -54 -132 -78 -256 -83 -126 -6 -231 10 -444 68 -81 22 -151 38 -154 35 -3 -3 15 -40 40 -83 l45 -77 79 -13 c43 -8 119 -24 169 -38 219 -59 387 -69 508 -31 73 23 171 74 216 112 21 19 43 34 48 34 5 0 33 -19 63 -41 70 -53 165 -97 249 -115 129 -27 252 -15 486 46 61 16 136 32 167 36 l58 7 46 79 c25 44 43 82 41 84 -3 3 -63 -10 -133 -29 -246 -66 -280 -72 -429 -72 -163 1 -223 18 -297 85 l-43 40 50 -19 c74 -28 197 -44 279 -36 99 9 281 47 427 89 67 20 145 39 171 42 l49 7 40 78 c35 71 42 79 68 79 47 0 93 39 133 115 32 62 40 70 65 70 49 0 80 31 130 128 26 50 48 96 48 101 0 5 -295 8 -712 7 l-713 -2 0 35 0 36 -240 0 -240 0 0 -36z m-377 -470 c72 -9 188 -19 257 -23 l125 -6 -40 -21 c-79 -42 -192 -53 -345 -34 -108 14 -421 83 -412 91 22 22 204 19 415 -7z m1649 8 c10 -10 -304 -79 -427 -94 -132 -15 -243 -5 -313 29 l-57 28 75 2 c65 3 399 35 485 47 46 7 227 -2 237 -12z"/>
 <path d="M1605 1740 c-13 -41 -83 -116 -131 -140 -45 -23 -59 -25 -179 -24 -121 1 -144 5 -330 52 -110 28 -202 49 -204 46 -6 -6 60 -173 73 -182 22 -17 331 -74 425 -79 146 -8 271 29 372 108 47 37 68 36 126 -5 116 -82 217 -111 364 -103 94 5 403 62 425 79 13 9 79 176 73 182 -2 3 -94 -18 -204 -45 -380 -95 -524 -77 -614 74 l-34 57 -78 0 c-69 0 -78 -2 -84 -20z"/>
 <path d="M1548 1407 c-51 -11 -62 -29 -28 -47 30 -16 24 -37 -12 -49 -107 -34 -261 -36 -412 -5 -38 8 -72 12 -75 9 -3 -4 8 -32 24 -63 22 -42 41 -63 71 -79 122 -67 295 -70 454 -8 52 20 118 42 146 50 49 12 54 11 117 -16 112 -50 180 -63 317 -64 96 0 137 4 177 18 50 18 54 22 98 103 26 47 45 87 42 90 -2 2 -49 -8 -103 -22 -82 -23 -121 -27 -226 -28 -138 -1 -159 5 -139 43 11 20 9 21 -27 21 -21 0 -77 13 -124 29 -69 25 -99 30 -169 29 -46 -1 -105 -6 -131 -11z"/>
 <path d="M1768 1085 c-27 -24 -48 -48 -48 -54 0 -7 24 -11 64 -11 73 0 126 -9 126 -21 0 -8 -79 -64 -191 -135 -67 -43 -167 -74 -268 -82 -96 -8 -114 -24 -54 -48 175 -74 387 -44 528 75 58 49 63 49 188 0 105 -40 217 -55 303 -41 77 13 198 66 192 84 -3 7 -23 19 -45 27 -36 13 -59 13 -165 2 -68 -8 -152 -13 -187 -13 -67 1 -135 18 -126 32 2 4 49 11 102 15 149 11 154 18 42 72 -75 36 -110 47 -176 54 -90 9 -151 30 -200 66 -17 12 -33 23 -35 23 -2 -1 -24 -20 -50 -45z"/>
 <path d="M2110 718 c-19 -5 -39 -14 -45 -19 -15 -15 29 -47 82 -60 24 -7 42 -13 40 -15 -2 -2 -54 -15 -115 -29 -93 -21 -124 -33 -184 -72 -82 -53 -182 -93 -233 -93 -28 0 -35 -4 -35 -20 0 -14 11 -22 43 -31 59 -16 203 -7 246 15 31 17 293 70 402 83 45 5 47 4 138 -72 109 -90 169 -120 283 -140 102 -18 135 -19 140 -3 3 8 -36 30 -106 58 -110 45 -226 111 -226 129 0 5 9 11 20 14 35 9 22 32 -24 45 -34 9 -56 25 -93 67 -36 41 -55 55 -75 55 -34 0 -121 39 -167 74 -38 28 -40 29 -91 14z"/>
 <path d="M2495 261 c-6 -5 -41 -12 -80 -15 -142 -12 -165 -17 -165 -35 0 -9 5 -22 12 -29 19 -19 -3 -33 -80 -47 -39 -8 -82 -21 -96 -30 -23 -16 -52 -82 -41 -94 3 -2 35 10 71 28 35 18 93 37 127 42 34 6 84 22 112 36 27 14 58 29 67 34 10 5 42 9 72 9 29 0 71 6 93 14 22 8 51 12 65 9 27 -5 68 11 68 27 0 18 -54 39 -74 28 -13 -7 -33 -4 -75 11 -67 24 -64 24 -76 12z"/>
 </g>

</svg>